{
  "accessors": [
    {
      "bufferView": 2,
      "componentType": 5126,
      "count": 1105,
      "max": [
        -1.0560970306396484,
        8.88611888885498,
        -2.315079927444458
      ],
      "min": [
        -22.364486694335938,
        -0.9859730005264282,
        -18.25975799560547
      ],
      "type": "VEC3"
    },
    {
      "bufferView": 2,
      "byteOffset": 13260,
      "componentType": 5126,
      "count": 1105,
      "max": [
        0.9965943694114685,
        1.0,
        0.9999769926071167
      ],
      "min": [
        -0.9949610233306885,
        -0.9971925020217896,
        -0.9999769926071167
      ],
      "type": "VEC3"
    },
    {
      "bufferView": 1,
      "componentType": 5126,
      "count": 1105,
      "max": [
        0.9997379779815674,
        1.0
      ],
      "min": [
        0.0,
        0.0
      ],
      "type": "VEC2"
    },
    {
      "bufferView": 0,
      "componentType": 5125,
      "count": 2748,
      "type": "SCALAR"
    },
    {
      "bufferView": 2,
      "byteOffset": 26520,
      "componentType": 5126,
      "count": 80,
      "max": [
        -0.011353000067174435,
        2.127815008163452,
        -0.45574501156806946
      ],
      "min": [
        -13.67231559753418,
        -0.8748689889907837,
        -17.69420623779297
      ],
      "type": "VEC3"
    },
    {
      "bufferView": 2,
      "byteOffset": 27480,
      "componentType": 5126,
      "count": 80,
      "max": [
        0.999993622303009,
        0.9993804693222046,
        0.904426097869873
      ],
      "min": [
        -0.983120858669281,
        -0.0375320203602314,
        -0.24807003140449524
      ],
      "type": "VEC3"
    },
    {
      "bufferView": 1,
      "byteOffset": 8840,
      "componentType": 5126,
      "count": 80,
      "max": [
        0.8822399973869324,
        0.9642900228500366
      ],
      "min": [
        0.0,
        0.0
      ],
      "type": "VEC2"
    },
    {
      "bufferView": 0,
      "byteOffset": 10992,
      "componentType": 5125,
      "count": 300,
      "type": "SCALAR"
    },
    {
      "bufferView": 2,
      "byteOffset": 28440,
      "componentType": 5126,
      "count": 414,
      "max": [
        0.3911769986152649,
        5.662203788757324,
        -4.6074538230896
      ],
      "min": [
        -20.197349548339844,
        -0.9628480076789856,
        -20.00849151611328
      ],
      "type": "VEC3"
    },
    {
      "bufferView": 2,
      "byteOffset": 33408,
      "componentType": 5126,
      "count": 414,
      "max": [
        0.9331193566322327,
        0.9707136154174805,
        0.9908602237701416
      ],
      "min": [
        -0.9604516625404358,
        -0.7307800650596619,
        -0.9557376503944397
      ],
      "type": "VEC3"
    },
    {
      "bufferView": 1,
      "byteOffset": 9480,
      "componentType": 5126,
      "count": 414,
      "max": [
        0.9966109991073608,
        1.0
      ],
      "min": [
        0.0,
        0.0
      ],
      "type": "VEC2"
    },
    {
      "bufferView": 0,
      "byteOffset": 12192,
      "componentType": 5125,
      "count": 750,
      "type": "SCALAR"
    },
    {
      "bufferView": 2,
      "byteOffset": 38376,
      "componentType": 5126,
      "count": 1043,
      "max": [
        -0.9579529762268066,
        6.884675025939941,
        -2.25246000289917
      ],
      "min": [
        -19.955059051513672,
        -0.9753289818763733,
        -17.617431640625
      ],
      "type": "VEC3"
    },
    {
      "bufferView": 2,
      "byteOffset": 50892,
      "componentType": 5126,
      "count": 1043,
      "max": [
        0.9938514828681946,
        0.9969229102134705,
        0.9999150037765503
      ],
      "min": [
        -0.9954395294189453,
        -0.9999578595161438,
        -0.9999150037765503
      ],
      "type": "VEC3"
    },
    {
      "bufferView": 1,
      "byteOffset": 12792,
      "componentType": 5126,
      "count": 1043,
      "max": [
        0.9997379779815674,
        1.0
      ],
      "min": [
        0.0,
        0.0
      ],
      "type": "VEC2"
    },
    {
      "bufferView": 0,
      "byteOffset": 15192,
      "componentType": 5125,
      "count": 2628,
      "type": "SCALAR"
    },
    {
      "bufferView": 2,
      "byteOffset": 63408,
      "componentType": 5126,
      "count": 863,
      "max": [
        -6.405251979827881,
        6.692221164703369,
        -10.402039527893066
      ],
      "min": [
        -9.291744232177734,
        1.8346920013427734,
        -13.879020690917969
      ],
      "type": "VEC3"
    },
    {
      "bufferView": 2,
      "byteOffset": 73764,
      "componentType": 5126,
      "count": 863,
      "max": [
        0.9877404570579529,
        0.9919575452804565,
        0.9959432482719421
      ],
      "min": [
        -0.9945738911628723,
        -0.993881106376648,
        -0.9950772523880005
      ],
      "type": "VEC3"
    },
    {
      "bufferView": 1,
      "byteOffset": 21136,
      "componentType": 5126,
      "count": 863,
      "max": [
        0.9997130036354065,
        1.0
      ],
      "min": [
        0.0,
        0.0
      ],
      "type": "VEC2"
    },
    {
      "bufferView": 0,
      "byteOffset": 25704,
      "componentType": 5125,
      "count": 3498,
      "type": "SCALAR"
    },
    {
      "bufferView": 2,
      "byteOffset": 84120,
      "componentType": 5126,
      "count": 851,
      "max": [
        -6.379858016967773,
        6.730062961578369,
        -10.365399360656738
      ],
      "min": [
        -9.345494270324707,
        1.8019440174102783,
        -13.902814865112305
      ],
      "type": "VEC3"
    },
    {
      "bufferView": 2,
      "byteOffset": 94332,
      "componentType": 5126,
      "count": 851,
      "max": [
        0.9940500259399414,
        0.9941111207008362,
        0.9980747699737549
      ],
      "min": [
        -0.9890324473381042,
        -0.9876107573509216,
        -0.9951276183128357
      ],
      "type": "VEC3"
    },
    {
      "bufferView": 1,
      "byteOffset": 28040,
      "componentType": 5126,
      "count": 851,
      "max": [
        0.9997130036354065,
        1.0
      ],
      "min": [
        0.0,
        0.0
      ],
      "type": "VEC2"
    },
    {
      "bufferView": 0,
      "byteOffset": 39696,
      "componentType": 5125,
      "count": 3480,
      "type": "SCALAR"
    },
    {
      "bufferView": 2,
      "byteOffset": 104544,
      "componentType": 5126,
      "count": 1234,
      "max": [
        -10.119653701782227,
        11.984651565551758,
        -9.303857803344727
      ],
      "min": [
        -19.68108367919922,
        2.3941500186920166,
        -18.369647979736328
      ],
      "type": "VEC3"
    },
    {
      "bufferView": 2,
      "byteOffset": 119352,
      "componentType": 5126,
      "count": 1234,
      "max": [
        0.9939069747924805,
        0.9995489716529846,
        0.9996214509010315
      ],
      "min": [
        -0.9999821186065674,
        -0.9991143345832825,
        -0.9998725056648254
      ],
      "type": "VEC3"
    },
    {
      "bufferView": 1,
      "byteOffset": 34848,
      "componentType": 5126,
      "count": 1234,
      "max": [
        0.9957510232925415,
        0.9984149932861328
      ],
      "min": [
        0.007978999987244606,
        0.06036499887704849
      ],
      "type": "VEC2"
    },
    {
      "bufferView": 0,
      "byteOffset": 53616,
      "componentType": 5125,
      "count": 5634,
      "type": "SCALAR"
    },
    {
      "bufferView": 2,
      "byteOffset": 134160,
      "componentType": 5126,
      "count": 1170,
      "max": [
        -10.083457946777344,
        12.02607536315918,
        -9.268494606018066
      ],
      "min": [
        -19.732738494873047,
        2.350867986679077,
        -18.405643463134766
      ],
      "type": "VEC3"
    },
    {
      "bufferView": 2,
      "byteOffset": 148200,
      "componentType": 5126,
      "count": 1170,
      "max": [
        0.9998406171798706,
        0.9984238743782043,
        0.9998993873596191
      ],
      "min": [
        -0.993070125579834,
        -0.9979276657104492,
        -0.9998641014099121
      ],
      "type": "VEC3"
    },
    {
      "bufferView": 1,
      "byteOffset": 44720,
      "componentType": 5126,
      "count": 1170,
      "max": [
        0.9931849837303162,
        0.9898520112037659
      ],
      "min": [
        0.007978999987244606,
        0.06036499887704849
      ],
      "type": "VEC2"
    },
    {
      "bufferView": 0,
      "byteOffset": 76152,
      "componentType": 5125,
      "count": 5526,
      "type": "SCALAR"
    }
  ],
  "asset": {
    "extras": {
      "author": "npbehunin (https://sketchfab.com/npbehunin)",
      "license": "CC-BY-4.0 (http://creativecommons.org/licenses/by/4.0/)",
      "source": "https://sketchfab.com/3d-models/calvin-and-hobbes-log-bridge-16f7cd3d670b46629b88764144d0b935",
      "title": "Calvin and Hobbes Log Bridge"
    },
    "generator": "Sketchfab-12.68.0",
    "version": "2.0"
  },
  "bufferViews": [
    {
      "buffer": 0,
      "byteLength": 98256,
      "name": "floatBufferViews",
      "target": 34963
    },
    {
      "buffer": 0,
      "byteLength": 54080,
      "byteOffset": 98256,
      "byteStride": 8,
      "name": "floatBufferViews",
      "target": 34962
    },
    {
      "buffer": 0,
      "byteLength": 162240,
      "byteOffset": 152336,
      "byteStride": 12,
      "name": "floatBufferViews",
      "target": 34962
    }
  ],
  "buffers": [
    {
      "byteLength": 314576,
      "uri": "scene.bin"
    }
  ],
  "extensionsUsed": [
    "KHR_materials_unlit"
  ],
  "images": [
    {
      "uri": "textures/Mat_Hobbes_baseColor.png"
    },
    {
      "uri": "textures/Mat_Hobbes_emissive.jpeg"
    },
    {
      "uri": "textures/Mat_Outline_baseColor.png"
    },
    {
      "uri": "textures/Mat_Outline_emissive.jpeg"
    },
    {
      "uri": "textures/Mat_Calvin_baseColor.png"
    },
    {
      "uri": "textures/Mat_Calvin_emissive.jpeg"
    },
    {
      "uri": "textures/Mat_Rocks_And_Wood_baseColor.png"
    },
    {
      "uri": "textures/Mat_Rocks_And_Wood_emissive.jpeg"
    },
    {
      "uri": "textures/Mat_Surface_baseColor.png"
    },
    {
      "uri": "textures/Mat_Surface_emissive.jpeg"
    },
    {
      "uri": "textures/Mat_Grass_baseColor.png"
    },
    {
      "uri": "textures/Mat_Grass_emissive.jpeg"
    }
  ],
  "materials": [
    {
      "alphaMode": "BLEND",
      "doubleSided": true,
      "emissiveFactor": [
        1.0,
        1.0,
        1.0
      ],
      "emissiveTexture": {
        "index": 1
      },
      "extensions": {
        "KHR_materials_unlit": {}
      },
      "name": "Mat_Hobbes",
      "pbrMetallicRoughness": {
        "baseColorTexture": {
          "index": 0
        },
        "metallicFactor": 0.0
      }
    },
    {
      "alphaMode": "BLEND",
      "emissiveFactor": [
        1.0,
        1.0,
        1.0
      ],
      "emissiveTexture": {
        "index": 3
      },
      "extensions": {
        "KHR_materials_unlit": {}
      },
      "name": "Mat_Outline",
      "pbrMetallicRoughness": {
        "baseColorTexture": {
          "index": 2
        },
        "metallicFactor": 0.0
      }
    },
    {
      "alphaMode": "BLEND",
      "doubleSided": true,
      "emissiveFactor": [
        1.0,
        1.0,
        1.0
      ],
      "emissiveTexture": {
        "index": 5
      },
      "extensions": {
        "KHR_materials_unlit": {}
      },
      "name": "Mat_Calvin",
      "pbrMetallicRoughness": {
        "baseColorTexture": {
          "index": 4
        },
        "metallicFactor": 0.0
      }
    },
    {
      "alphaMode": "BLEND",
      "doubleSided": true,
      "emissiveFactor": [
        1.0,
        1.0,
        1.0
      ],
      "emissiveTexture": {
        "index": 7
      },
      "extensions": {
        "KHR_materials_unlit": {}
      },
      "name": "Mat_Rocks_And_Wood",
      "pbrMetallicRoughness": {
        "baseColorTexture": {
          "index": 6
        },
        "metallicFactor": 0.0
      }
    },
    {
      "alphaMode": "BLEND",
      "doubleSided": true,
      "emissiveFactor": [
        1.0,
        1.0,
        1.0
      ],
      "emissiveTexture": {
        "index": 9
      },
      "extensions": {
        "KHR_materials_unlit": {}
      },
      "name": "Mat_Surface",
      "pbrMetallicRoughness": {
        "baseColorTexture": {
          "index": 8
        },
        "metallicFactor": 0.0
      }
    },
    {
      "alphaMode": "BLEND",
      "doubleSided": true,
      "emissiveFactor": [
        1.0,
        1.0,
        1.0
      ],
      "emissiveTexture": {
        "index": 11
      },
      "extensions": {
        "KHR_materials_unlit": {}
      },
      "name": "Mat_Grass",
      "pbrMetallicRoughness": {
        "baseColorTexture": {
          "index": 10
        },
        "metallicFactor": 0.0
      }
    }
  ],
  "meshes": [
    {
      "name": "defaultMaterial",
      "primitives": [
        {
          "attributes": {
            "NORMAL": 1,
            "POSITION": 0,
            "TEXCOORD_0": 2
          },
          "indices": 3,
          "material": 3,
          "mode": 4
        }
      ]
    },
    {
      "name": "defaultMaterial",
      "primitives": [
        {
          "attributes": {
            "NORMAL": 5,
            "POSITION": 4,
            "TEXCOORD_0": 6
          },
          "indices": 7,
          "material": 4,
          "mode": 4
        }
      ]
    },
    {
      "name": "defaultMaterial",
      "primitives": [
        {
          "attributes": {
            "NORMAL": 9,
            "POSITION": 8,
            "TEXCOORD_0": 10
          },
          "indices": 11,
          "material": 5,
          "mode": 4
        }
      ]
    },
    {
      "name": "defaultMaterial",
      "primitives": [
        {
          "attributes": {
            "NORMAL": 13,
            "POSITION": 12,
            "TEXCOORD_0": 14
          },
          "indices": 15,
          "material": 1,
          "mode": 4
        }
      ]
    },
    {
      "name": "defaultMaterial",
      "primitives": [
        {
          "attributes": {
            "NORMAL": 17,
            "POSITION": 16,
            "TEXCOORD_0": 18
          },
          "indices": 19,
          "material": 2,
          "mode": 4
        }
      ]
    },
    {
      "name": "defaultMaterial",
      "primitives": [
        {
          "attributes": {
            "NORMAL": 21,
            "POSITION": 20,
            "TEXCOORD_0": 22
          },
          "indices": 23,
          "material": 1,
          "mode": 4
        }
      ]
    },
    {
      "name": "defaultMaterial",
      "primitives": [
        {
          "attributes": {
            "NORMAL": 25,
            "POSITION": 24,
            "TEXCOORD_0": 26
          },
          "indices": 27,
          "material": 0,
          "mode": 4
        }
      ]
    },
    {
      "name": "defaultMaterial",
      "primitives": [
        {
          "attributes": {
            "NORMAL": 29,
            "POSITION": 28,
            "TEXCOORD_0": 30
          },
          "indices": 31,
          "material": 1,
          "mode": 4
        }
      ]
    }
  ],
  "nodes": [
    {
      "children": [
        1
      ],
      "matrix": [
        1.0,
        0.0,
        0.0,
        0.0,
        0.0,
        2.220446049250313e-16,
        -1.0,
        0.0,
        0.0,
        1.0,
        2.220446049250313e-16,
        0.0,
        0.0,
        0.0,
        0.0,
        1.0
      ],
      "name": "Sketchfab_model"
    },
    {
      "children": [
        2,
        11,
        16
      ],
      "matrix": [
        1.0,
        0.0,
        0.0,
        0.0,
        0.0,
        -4.371139006309477e-08,
        0.999999999999999,
        0.0,
        0.0,
        -0.999999999999999,
        -4.371139006309477e-08,
        0.0,
        0.0,
        0.0,
        0.0,
        1.0
      ],
      "name": "Collada visual scene group"
    },
    {
      "children": [
        3,
        5,
        7,
        9
      ],
      "name": "Scene"
    },
    {
      "children": [
        4
      ],
      "name": "Wood_And_Rocks_Geo"
    },
    {
      "mesh": 0,
      "name": "defaultMaterial"
    },
    {
      "children": [
        6
      ],
      "name": "Water_Geo"
    },
    {
      "mesh": 1,
      "name": "defaultMaterial"
    },
    {
      "children": [
        8
      ],
      "name": "Grass_Geo"
    },
    {
      "mesh": 2,
      "name": "defaultMaterial"
    },
    {
      "children": [
        10
      ],
      "name": "Wood_And_Rocks_Outline"
    },
    {
      "mesh": 3,
      "name": "defaultMaterial"
    },
    {
      "children": [
        12,
        14
      ],
      "name": "Calvin"
    },
    {
      "children": [
        13
      ],
      "name": "Calvin_Geo"
    },
    {
      "mesh": 4,
      "name": "defaultMaterial"
    },
    {
      "children": [
        15
      ],
      "name": "Calvin_Outline"
    },
    {
      "mesh": 5,
      "name": "defaultMaterial"
    },
    {
      "children": [
        17,
        19
      ],
      "matrix": [
        1.0,
        0.0,
        0.0,
        0.0,
        0.0,
        1.0,
        0.0,
        0.0,
        0.0,
        0.0,
        1.0,
        0.0,
        -4.718668,
        0.0,
        0.0,
        1.0
      ],
      "name": "Hobbes"
    },
    {
      "children": [
        18
      ],
      "matrix": [
        1.0,
        0.0,
        0.0,
        0.0,
        0.0,
        1.0,
        0.0,
        0.0,
        0.0,
        0.0,
        1.0,
        0.0,
        4.718668,
        0.0,
        0.0,
        1.0
      ],
      "name": "Hobbes_Geo"
    },
    {
      "mesh": 6,
      "name": "defaultMaterial"
    },
    {
      "children": [
        20
      ],
      "matrix": [
        1.0,
        0.0,
        0.0,
        0.0,
        0.0,
        1.0,
        0.0,
        0.0,
        0.0,
        0.0,
        1.0,
        0.0,
        4.718668,
        0.0,
        0.0,
        1.0
      ],
      "name": "Hobbes_Outline"
    },
    {
      "mesh": 7,
      "name": "defaultMaterial"
    }
  ],
  "samplers": [
    {
      "magFilter": 9729,
      "minFilter": 9987,
      "wrapS": 10497,
      "wrapT": 10497
    }
  ],
  "scene": 0,
  "scenes": [
    {
      "name": "Sketchfab_Scene",
      "nodes": [
        0
      ]
    }
  ],
  "textures": [
    {
      "sampler": 0,
      "source": 0
    },
    {
      "sampler": 0,
      "source": 1
    },
    {
      "sampler": 0,
      "source": 2
    },
    {
      "sampler": 0,
      "source": 3
    },
    {
      "sampler": 0,
      "source": 4
    },
    {
      "sampler": 0,
      "source": 5
    },
    {
      "sampler": 0,
      "source": 6
    },
    {
      "sampler": 0,
      "source": 7
    },
    {
      "sampler": 0,
      "source": 8
    },
    {
      "sampler": 0,
      "source": 9
    },
    {
      "sampler": 0,
      "source": 10
    },
    {
      "sampler": 0,
      "source": 11
    }
  ]
}
